<?xml version="1.0" encoding="UTF-8"?>
<svg id="Layer_2" data-name="Layer 2" xmlns="http://www.w3.org/2000/svg" viewBox="0 0 801.15 275.22">
  <defs>
    <style>
      .cls-1 {
        fill: #1771ad;
      }

      .cls-2 {
        stroke: #f4ac1c;
        stroke-miterlimit: 10;
        stroke-width: 3.5px;
      }

      .cls-2, .cls-3 {
        fill: #f5ac1c;
      }

      .cls-4 {
        fill: #f5ab1c;
      }

      .cls-5 {
        fill: #1d71ab;
      }
    </style>
  </defs>
  <g id="Layer_1-2" data-name="Layer 1">
    <g>
      <g>
        <g>
          <path class="cls-5" d="m42.93,183.53l-.26.18c-4.89,3.32-11.59,1.78-14.51-3.36-9.11-16.04-14.4-34.51-14.64-54.17-.68-55.72,39.62-102.86,92.79-112.5,6.29-1.14,12.06,3.78,12.06,10.18h0c0,5.03-3.63,9.26-8.57,10.17-42.41,7.8-75.01,44.89-75.65,89.41-.24,16.95,4.09,32.87,11.85,46.61,2.62,4.64,1.34,10.5-3.07,13.49Z"/>
          <path class="cls-1" d="m36.95,193.73c-1.39,0-2.79-.16-4.17-.48-4.98-1.16-9.28-4.37-11.81-8.82-10.03-17.67-15.47-37.78-15.72-58.16C4.52,66.91,46.41,16.13,104.84,5.54c5.39-.98,10.89.48,15.11,4,4.26,3.55,6.7,8.77,6.7,14.31,0,8.97-6.45,16.67-15.35,18.31-39.34,7.23-68.3,41.46-68.87,81.39-.21,14.89,3.52,29.56,10.78,42.43,4.79,8.48,2.37,18.97-5.63,24.4l-.28.19c-3.06,2.08-6.68,3.17-10.35,3.17ZM108.14,21.78c-.11,0-.22,0-.34.03C58.14,30.82,21.17,75.64,21.79,126.08c.22,17.59,4.9,34.94,13.56,50.19.32.57.82.79,1.18.87.36.09.92.11,1.49-.28l.26-.18c.81-.55,1.03-1.66.51-2.58-8.7-15.42-13.17-32.98-12.91-50.8.68-47.8,35.34-88.77,82.42-97.42,1.06-.19,1.8-1.03,1.8-2.04,0-.85-.47-1.38-.76-1.61-.26-.22-.67-.46-1.21-.46Z"/>
        </g>
        <g>
          <path class="cls-5" d="m36.95,190.7c-1.16,0-2.33-.13-3.48-.4-4.16-.97-7.75-3.65-9.86-7.36-9.78-17.23-15.08-36.83-15.33-56.7-.34-28,9.39-55.33,27.42-76.95C53.52,27.91,78.27,13.43,105.38,8.52c4.5-.82,9.1.41,12.63,3.35,3.56,2.98,5.61,7.35,5.61,11.99,0,7.51-5.41,13.96-12.87,15.33-40.75,7.49-70.76,42.95-71.35,84.32-.22,15.42,3.64,30.63,11.17,43.96,4.01,7.1,1.99,15.87-4.69,20.4l-.26.18c-2.57,1.74-5.6,2.66-8.66,2.66ZM108.15,18.75c-.28,0-.58.03-.9.08C56.17,28.1,18.13,74.22,18.76,126.12c.22,18.1,5.05,35.96,13.96,51.65.68,1.19,1.78,2.02,3.12,2.33,1.35.32,2.73.06,3.88-.72l.26-.18c2.12-1.44,2.75-4.27,1.45-6.57-8.44-14.95-12.77-31.98-12.52-49.26.66-46.36,34.28-86.1,79.94-94.49,2.48-.46,4.28-2.57,4.28-5.02,0-1.52-.67-2.96-1.84-3.94-.56-.47-1.64-1.16-3.14-1.16Z"/>
          <path class="cls-1" d="m36.95,198.97c-1.81,0-3.61-.21-5.36-.61-6.4-1.49-11.93-5.62-15.18-11.33C5.94,168.59.27,147.61,0,126.35c-.37-29.97,10.05-59.22,29.34-82.35C48.41,21.13,74.89,5.64,103.9.38c6.92-1.25,13.99.62,19.4,5.14,5.45,4.55,8.58,11.23,8.58,18.33,0,11.5-8.26,21.37-19.64,23.46-36.89,6.78-64.04,38.87-64.58,76.31-.2,13.96,3.3,27.72,10.1,39.78,6.14,10.88,3.02,24.34-7.25,31.31l-.29.2c-3.9,2.65-8.51,4.07-13.28,4.07Z"/>
        </g>
      </g>
      <path class="cls-4" d="m147.73,275.22c-4.43,0-8.87-.25-13.31-.75-29.67-3.36-57.32-17.8-77.86-40.65-3.74-4.16-5.56-9.85-4.99-15.61.57-5.83,3.51-11.06,8.05-14.34,7.45-5.37,17.42-4.22,23.71,2.75,29.75,32.93,77.25,38.7,112.95,13.73,13.34-9.33,24.14-22.3,31.25-37.49,4.35-9.3,14.37-13.38,23.31-9.48l.31.14c3.41,1.48,6.29,4.01,8.33,7.3h0c.77,1.23,1.4,2.56,1.89,3.95,1.77,5.04,1.5,10.7-.74,15.51-9.49,20.43-23.77,38.09-41.3,51.07-21.08,15.62-46.1,23.9-71.61,23.9Zm-77.83-70.57c-2.73,0-5.47.84-7.86,2.57-3.58,2.58-5.9,6.74-6.36,11.39-.45,4.61.99,9.15,3.95,12.45,19.86,22.1,46.59,36.05,75.25,39.3,28.98,3.28,58.09-4.65,81.99-22.36,16.97-12.57,30.81-29.69,40.01-49.49,1.79-3.85,2-8.36.59-12.4-.38-1.1-.89-2.15-1.5-3.13h0c-1.6-2.57-3.84-4.54-6.47-5.69l-.31-.14c-6.83-2.98-14.54.22-17.91,7.45-7.41,15.85-18.69,29.38-32.62,39.13-37.43,26.19-87.22,20.16-118.38-14.34-2.82-3.12-6.58-4.73-10.36-4.73Z"/>
      <g>
        <path class="cls-5" d="m160.07,134.82c.04-5.67,4.64-10.24,10.31-10.24h65.91c1.58,0,2.81-1.41,2.58-2.99-5.8-40.3-37.66-72.17-77.95-78-5.01-.73-8.66-5.12-8.66-10.18h0c0-6.28,5.59-11.13,11.8-10.21,51.12,7.52,91.2,49.43,95.93,101.38.31,3.39.46,6.83.46,10.31h0c0,5.69-4.61,10.31-10.31,10.31h-79.78c-5.72,0-10.34-4.66-10.31-10.37h0Z"/>
        <path class="cls-1" d="m250.16,154.15h-79.78c-5.17,0-10.02-2.02-13.67-5.69-3.65-3.67-5.63-8.53-5.6-13.7h0c.07-10.56,8.71-19.14,19.27-19.14h58.25c-7.78-32.76-35.22-58.27-68.99-63.17-9.32-1.35-16.34-9.54-16.33-19.06,0-5.6,2.45-10.92,6.7-14.59,4.24-3.66,9.84-5.29,15.37-4.48,55.85,8.22,98.43,53.22,103.55,109.44.33,3.69.5,7.43.5,11.12,0,10.62-8.64,19.27-19.27,19.27Zm-81.13-19.28c0,.46.21.78.39.96.18.18.49.4.96.4h79.78c.74,0,1.35-.61,1.35-1.35,0-3.16-.14-6.36-.43-9.51-4.36-47.93-40.67-86.31-88.31-93.32-.39-.05-.75.05-1.06.31-.22.19-.48.52-.48,1.04,0,.65.43,1.22.98,1.3,44.02,6.38,79.19,41.58,85.53,85.59.47,3.35-.52,6.71-2.72,9.24-2.2,2.53-5.38,3.98-8.73,3.98h-65.92c-.74,0-1.34.6-1.35,1.34h0Z"/>
      </g>
    </g>
    <path class="cls-3" d="m315.53,92.8h43.89l-.03,25.69h4.22l.55-10.29c1.84-17.24,17.06-18.06,29.55-17.4,13.56.72,19.08,6.03,19.08,20.16v73.59h-44.04v-38.9c0-4.59-1.29-6.24-4.4-6.24-3.49,0-4.77,2.2-4.77,8.26v36.89h-44.04v-91.76Z"/>
    <path class="cls-3" d="m573.06,148.5l1.65-56.71h44.78l-24.9,91.76h-46.59l-26.51-91.76h45.14l1.84,56.71h4.59Z"/>
    <path class="cls-3" d="m665.27,91.45c31.37,0,48.91,12.63,48.91,46.46,0,32.08-17.54,44.71-48.91,44.71s-48.91-12.63-48.91-44.71c0-33.83,17.53-46.46,48.91-46.46Zm1.03,62.7c17.04,0,20.82-2.59,20.82-16.65,0-15.9-3.78-18.49-20.82-18.49s-20.86,2.59-20.86,18.49c0,14.06,3.78,16.65,20.86,16.65Z"/>
    <path class="cls-2" d="m473.51,59.78v43.56h4.62v11.58c.81,1.31,1.46,2.78,1.99,4.39,1.22,3.8,1.85,8.22,1.85,13.25s-.63,9.44-1.85,13.25c-.51,1.59-1.18,3.04-1.99,4.34v33.34h32.67V59.78h-37.3Zm19.23,55.49c-2.76-6.63-6.85-11.87-12.24-15.71-2.13-1.53-4.47-2.75-6.99-3.66-3.85-1.41-8.17-2.12-12.95-2.12-7.95,0-14.88,1.9-20.79,5.7-5.9,3.8-10.48,8.99-13.75,15.58-3.25,6.6-4.88,14.13-4.88,22.6s1.61,15.79,4.8,22.41c3.21,6.63,7.7,11.86,13.44,15.71,5.76,3.84,12.45,5.78,20.09,5.78s13.49-1.5,18.65-4.48c.71-.4,1.4-.84,2.07-1.3,5.54-3.85,9.7-9.08,12.5-15.71,2.8-6.62,4.2-14.08,4.2-22.41s-1.39-15.78-4.16-22.39Zm-12.62,30.54c-.51,1.59-1.18,3.04-1.99,4.34-1.08,1.79-2.44,3.29-4.06,4.51-2.8,2.11-6.54,3.16-11.2,3.16s-8.21-1.13-11.09-3.39c-2.88-2.26-5-5.29-6.39-9.12-1.39-3.83-2.08-8.07-2.08-12.74s.72-8.84,2.16-12.67c1.43-3.82,3.65-6.87,6.65-9.16,3.01-2.29,6.83-3.43,11.51-3.43,4.36,0,7.9,1.05,10.59,3.16,1.54,1.21,2.85,2.7,3.91,4.46.81,1.31,1.46,2.78,1.99,4.39,1.22,3.8,1.85,8.22,1.85,13.25s-.63,9.44-1.85,13.25Z"/>
    <path class="cls-3" d="m759.97,182.97h-38.9v-90.61h33.89v37.28l-3.67-4.8c1.98-5.26-4.83-6.92-1.53-11.25,3.3-4.33,7.34-7.91,12.15-10.73,3.67-2.26,7.66-4.02,12-5.3,4.33-1.26,8.8-2.07,13.42-2.4,4.61-.32,9.22-.21,13.83.36,0,0,0,35.84,0,35.86,0-2.87-22.83-.39-24.95.19-23.04,6.26-16.09,33.5-16.23,50.9,0,.17,0,.34,0,.51Z"/>
    <path class="cls-4" d="m239,176.04l5.86-2.06,6.65,2.06,4.68,4.18,4.28,8.21v5.3l-3.55,9.11-10.84,18.56-7.81,10.35s-19.38,18.01-19.39,18.02c-1.98,1.84-4.46,3.02-6.78,4.36s-3.67,3.2-5.86,4.48c-4.45,2.62-10.07,3.26-14.96,1.53-5.98-2.11-10.59-7.67-11.57-13.94-.77-4.94.8-10.01,3.77-13.98,1.52-2.03,3.4-3.79,5.55-5.13s4.74-1.96,6.8-3.54l7.03-5.43,6.45-5.86,6.25-6.06,5.47-5.86,2.73-5.47,3.91-6.64,2.34-4.1,3.71-3.91,5.27-4.18Z"/>
  </g>
</svg>