<svg width="25" height="27" viewBox="0 0 25 27" fill="none" xmlns="http://www.w3.org/2000/svg">
<path d="M8.55248 13.842V11.2104H5.9209V13.842H8.55248Z" fill="#515D6B"/>
<path d="M8.55248 15.158V17.7895H5.9209V15.158H8.55248Z" fill="#515D6B"/>
<path d="M13.8157 13.842V11.2104H11.1841V13.842H13.8157Z" fill="#515D6B"/>
<path d="M13.8157 15.158V17.7895H11.1841V15.158H13.8157Z" fill="#515D6B"/>
<path d="M19.0788 13.842V11.2104H16.4473V13.842H19.0788Z" fill="#515D6B"/>
<path d="M19.0788 15.158V17.7895H16.4473V15.158H19.0788Z" fill="#515D6B"/>
<path fill-rule="evenodd" clip-rule="evenodd" d="M9.86842 0.684204H15.1316C16.2216 0.684204 17.1053 1.56786 17.1053 2.65789V7.26315H20.3947C21.4848 7.26315 22.3684 8.14677 22.3684 9.23684V25.6842H25V27H0V25.6842H2.63158V9.23684C2.63158 8.14677 3.5152 7.26315 4.60526 7.26315H7.89474V2.65789C7.89474 1.56786 8.77836 0.684204 9.86842 0.684204ZM3.94737 25.6842H9.86842V21.7368C9.86842 20.2835 11.0466 19.1053 12.5 19.1053C13.9534 19.1053 15.1316 20.2835 15.1316 21.7368V25.6842H21.0526V9.23684C21.0526 8.87348 20.7581 8.57894 20.3947 8.57894H16.993C16.722 9.34552 15.9909 9.89473 15.1316 9.89473H9.86842C9.00908 9.89473 8.27796 9.34552 8.00704 8.57894H4.60526C4.24191 8.57894 3.94737 8.87348 3.94737 9.23684V25.6842ZM13.1579 3.31578C13.1579 2.95244 12.8634 2.65789 12.5 2.65789C12.1366 2.65789 11.8421 2.95244 11.8421 3.31578V4.63157H10.5263C10.163 4.63157 9.86842 4.92611 9.86842 5.28947C9.86842 5.65282 10.163 5.94736 10.5263 5.94736H11.8421V7.26315C11.8421 7.62651 12.1366 7.92105 12.5 7.92105C12.8634 7.92105 13.1579 7.62651 13.1579 7.26315V5.94736H14.4737C14.837 5.94736 15.1316 5.65282 15.1316 5.28947C15.1316 4.92611 14.837 4.63157 14.4737 4.63157H13.1579V3.31578Z" fill="#515D6B"/>
</svg>
