<svg width="26" height="26" viewBox="0 0 26 26" fill="none" xmlns="http://www.w3.org/2000/svg">
<path opacity="0.3" d="M17.875 4.875C16.1314 4.875 14.0923 6.85168 13 8.125C11.9077 6.85168 9.86863 4.875 8.125 4.875C5.03858 4.875 3.25 7.28236 3.25 10.3463C3.25 13.7404 6.5 17.3333 13 21.125C19.5 17.3333 22.75 13.8125 22.75 10.5625C22.75 7.49859 20.9614 4.875 17.875 4.875Z" fill="#B5B2FF"/>
<path d="M13 21.125C6.5 17.3333 3.25 13.7404 3.25 10.3463C3.25 7.28236 5.03858 4.875 8.125 4.875C9.86863 4.875 11.9077 6.85168 13 8.125V21.125Z" fill="#B5B2FF"/>
</svg>
