<svg width="26" height="26" viewBox="0 0 26 26" fill="none" xmlns="http://www.w3.org/2000/svg">
<path opacity="0.3" d="M7.5835 4.33337H5.41683C4.81852 4.33337 4.3335 4.8184 4.3335 5.41671V7.58337C4.3335 8.18168 4.81852 8.66671 5.41683 8.66671H7.5835C8.1818 8.66671 8.66683 8.18168 8.66683 7.58337V5.41671C8.66683 4.8184 8.1818 4.33337 7.5835 4.33337Z" fill="#515D6B"/>
<path fill-rule="evenodd" clip-rule="evenodd" d="M5.41683 10.8334H7.5835C8.1818 10.8334 8.66683 11.3184 8.66683 11.9167V14.0834C8.66683 14.6817 8.1818 15.1667 7.5835 15.1667H5.41683C4.81852 15.1667 4.3335 14.6817 4.3335 14.0834V11.9167C4.3335 11.3184 4.81852 10.8334 5.41683 10.8334ZM11.9168 4.33337H14.0835C14.6818 4.33337 15.1668 4.8184 15.1668 5.41671V7.58337C15.1668 8.18168 14.6818 8.66671 14.0835 8.66671H11.9168C11.3185 8.66671 10.8335 8.18168 10.8335 7.58337V5.41671C10.8335 4.8184 11.3185 4.33337 11.9168 4.33337ZM11.9168 10.8334H14.0835C14.6818 10.8334 15.1668 11.3184 15.1668 11.9167V14.0834C15.1668 14.6817 14.6818 15.1667 14.0835 15.1667H11.9168C11.3185 15.1667 10.8335 14.6817 10.8335 14.0834V11.9167C10.8335 11.3184 11.3185 10.8334 11.9168 10.8334ZM18.4168 4.33337H20.5835C21.1818 4.33337 21.6668 4.8184 21.6668 5.41671V7.58337C21.6668 8.18168 21.1818 8.66671 20.5835 8.66671H18.4168C17.8185 8.66671 17.3335 8.18168 17.3335 7.58337V5.41671C17.3335 4.8184 17.8185 4.33337 18.4168 4.33337ZM18.4168 10.8334H20.5835C21.1818 10.8334 21.6668 11.3184 21.6668 11.9167V14.0834C21.6668 14.6817 21.1818 15.1667 20.5835 15.1667H18.4168C17.8185 15.1667 17.3335 14.6817 17.3335 14.0834V11.9167C17.3335 11.3184 17.8185 10.8334 18.4168 10.8334ZM5.41683 17.3334H7.5835C8.1818 17.3334 8.66683 17.8184 8.66683 18.4167V20.5834C8.66683 21.1817 8.1818 21.6667 7.5835 21.6667H5.41683C4.81852 21.6667 4.3335 21.1817 4.3335 20.5834V18.4167C4.3335 17.8184 4.81852 17.3334 5.41683 17.3334ZM11.9168 17.3334H14.0835C14.6818 17.3334 15.1668 17.8184 15.1668 18.4167V20.5834C15.1668 21.1817 14.6818 21.6667 14.0835 21.6667H11.9168C11.3185 21.6667 10.8335 21.1817 10.8335 20.5834V18.4167C10.8335 17.8184 11.3185 17.3334 11.9168 17.3334ZM18.4168 17.3334H20.5835C21.1818 17.3334 21.6668 17.8184 21.6668 18.4167V20.5834C21.6668 21.1817 21.1818 21.6667 20.5835 21.6667H18.4168C17.8185 21.6667 17.3335 21.1817 17.3335 20.5834V18.4167C17.3335 17.8184 17.8185 17.3334 18.4168 17.3334Z" fill="#515D6B"/>
</svg>
