<svg width="26" height="26" viewBox="0 0 26 26" fill="none" xmlns="http://www.w3.org/2000/svg">
<path fill-rule="evenodd" clip-rule="evenodd" d="M7.5835 10.8333V8.66667C7.5835 5.67512 10.0086 3.25 13.0002 3.25C15.9917 3.25 18.4168 5.67512 18.4168 8.66667V10.8333H19.5002C20.6968 10.8333 21.6668 11.8034 21.6668 13V19.5C21.6668 20.6966 20.6968 21.6667 19.5002 21.6667H6.50016C5.30355 21.6667 4.3335 20.6966 4.3335 19.5V13C4.3335 11.8034 5.30355 10.8333 6.50016 10.8333H7.5835ZM13.0002 5.41667C11.2052 5.41667 9.75016 6.87174 9.75016 8.66667V10.8333H16.2502V8.66667C16.2502 6.87174 14.7951 5.41667 13.0002 5.41667Z" fill="#515D6B"/>
</svg>
