<svg width="26" height="26" viewBox="0 0 26 26" fill="none" xmlns="http://www.w3.org/2000/svg">
<path fill-rule="evenodd" clip-rule="evenodd" d="M5.41667 6.5H20.5833C21.78 6.5 22.75 7.47005 22.75 8.66667V18.4167C22.75 19.6133 21.78 20.5833 20.5833 20.5833H5.41667C4.22005 20.5833 3.25 19.6133 3.25 18.4167V8.66667C3.25 7.47005 4.22005 6.5 5.41667 6.5ZM19.6565 8.49295L13 12.0772L6.34354 8.49295C5.94844 8.28021 5.45569 8.42803 5.24295 8.82313C5.03021 9.21822 5.17803 9.71097 5.57313 9.92372L12.6148 13.7154C12.8553 13.8449 13.1447 13.8449 13.3852 13.7154L20.4269 9.92372C20.822 9.71097 20.9698 9.21822 20.757 8.82313C20.5443 8.42803 20.0516 8.28021 19.6565 8.49295Z" fill="#515D6B"/>
</svg>
