<svg width="26" height="26" viewBox="0 0 26 26" fill="none" xmlns="http://www.w3.org/2000/svg">
<path fill-rule="evenodd" clip-rule="evenodd" d="M18.4166 13H20.0416C20.9391 13 21.6666 13.7275 21.6666 14.625C21.6666 15.5225 20.9391 16.25 20.0416 16.25H5.95831C5.06085 16.25 4.33331 15.5225 4.33331 14.625C4.33331 13.7275 5.06085 13 5.95831 13H7.58331L8.18811 7.55683C8.46054 5.10495 10.533 3.25 13 3.25C15.467 3.25 17.5394 5.10495 17.8119 7.55683L18.4166 13Z" fill="#B5B2FF"/>
<path opacity="0.3" d="M15.1666 19.5C15.1666 18.3034 14.1966 17.3334 13 17.3334C11.8034 17.3334 10.8333 18.3034 10.8333 19.5C10.8333 20.6967 11.8034 21.6667 13 21.6667C14.1966 21.6667 15.1666 20.6967 15.1666 19.5Z" fill="#B5B2FF"/>
</svg>
