<svg width="26" height="26" viewBox="0 0 26 26" fill="none" xmlns="http://www.w3.org/2000/svg">
<path fill-rule="evenodd" clip-rule="evenodd" d="M10.6787 12.9078L13.0664 15.2955C13.7258 15.9549 14.7333 16.1184 15.5674 15.7013L15.838 15.566C16.6721 15.149 17.6796 15.3124 18.339 15.9719L21.2995 18.9324C21.5111 19.144 21.5111 19.4869 21.2995 19.6985C21.2584 19.7396 21.2108 19.7739 21.1588 19.7999L18.7668 20.9959C16.9369 21.9108 14.7269 21.5522 13.2803 20.1056L6.78155 13.6068C5.20688 12.0322 4.65704 9.70297 5.36125 7.59034L6.23315 4.97465C6.32775 4.69085 6.6345 4.53747 6.91831 4.63207C6.99808 4.65866 7.07057 4.70346 7.13003 4.76292L10.0022 7.63513C10.6617 8.29458 10.8252 9.30202 10.4081 10.1362L10.2728 10.4067C9.85575 11.2409 10.0192 12.2483 10.6787 12.9078Z" fill="#B5B2FF"/>
</svg>
