<svg width="26" height="26" viewBox="0 0 26 26" fill="none" xmlns="http://www.w3.org/2000/svg">
<path fill-rule="evenodd" clip-rule="evenodd" d="M16.9297 4.93872L15.6751 6.8206C15.0887 5.97238 14.1092 5.41667 13 5.41667C11.2051 5.41667 9.74998 6.87174 9.74998 8.66667V10.8333H15.1666H18.4166H19.5C20.6966 10.8333 21.6666 11.8034 21.6666 13V19.5C21.6666 20.6966 20.6966 21.6667 19.5 21.6667H6.49998C5.30336 21.6667 4.33331 20.6966 4.33331 19.5V13C4.33331 11.8034 5.30336 10.8333 6.49998 10.8333H7.58331V8.66667C7.58331 5.67512 10.0084 3.25 13 3.25C14.5471 3.25 15.9427 3.8986 16.9297 4.93872Z" fill="#B5B2FF"/>
</svg>
