<svg width="26" height="26" viewBox="0 0 26 26" fill="none" xmlns="http://www.w3.org/2000/svg">
<path opacity="0.3" d="M12.9998 11.9167C10.6066 11.9167 8.6665 9.97657 8.6665 7.58333C8.6665 5.1901 10.6066 3.25 12.9998 3.25C15.3931 3.25 17.3332 5.1901 17.3332 7.58333C17.3332 9.97657 15.3931 11.9167 12.9998 11.9167Z" fill="#515D6B"/>
<path d="M3.25071 21.8825C3.67061 16.7121 7.86707 14.0834 12.982 14.0834C18.1688 14.0834 22.4303 16.5677 22.7477 21.8834C22.7604 22.0951 22.7477 22.75 21.9339 22.75C17.9196 22.75 11.9543 22.75 4.03813 22.75C3.76644 22.75 3.22783 22.1642 3.25071 21.8825Z" fill="#515D6B"/>
</svg>
